<svg xmlns="http://www.w3.org/2000/svg" width="20" height="26" viewBox="0 0 20 26"><path fill="#444" d="M20.37 20.095q0 1.698-1.145 2.844t-2.844 1.145q-1.958 0-3.41-1.45L1.7 11.374Q.058 9.705.058 7.443q0-2.307 1.597-3.917t3.903-1.61q2.292 0 3.96 1.638l8.78 8.792q.144.145.144.32 0 .23-.443.674t-.676.443q-.19 0-.334-.145L8.198 4.83Q7.052 3.715 5.572 3.715q-1.538 0-2.597 1.088t-1.06 2.626q0 1.523 1.104 2.626l11.258 11.273q.914.914 2.104.914.93 0 1.538-.608t.61-1.538q0-1.19-.915-2.104l-8.43-8.43q-.377-.348-.87-.348-.422 0-.697.276t-.276.696q0 .464.363.856l5.95 5.95q.144.144.144.318 0 .232-.45.682t-.683.45q-.174 0-.32-.145L6.4 12.345q-.915-.884-.915-2.16 0-1.19.827-2.018T8.33 7.34q1.276 0 2.16.914l8.43 8.43q1.452 1.422 1.452 3.41z"/></svg>